<svg xmlns="http://www.w3.org/2000/svg" viewBox="0 0 64 64"><circle cx="32" cy="32" r="31" fill="#561320"/><circle cx="32" cy="32" r="27" fill="none" stroke="#c9962b" stroke-width="1.5"/><circle cx="32" cy="32" r="24" fill="none" stroke="#c9962b" stroke-width=".8" stroke-dasharray="1.5 2.5"/><path d="M32 13c3.6 4.6 5 7.4 5 9.8a5 5 0 0 1-10 0c0-2.4 1.4-5.2 5-9.8Z" fill="#f2c14e"/><path d="M32 17.5c1.6 2.3 2.2 3.6 2.2 4.8a2.2 2.2 0 0 1-4.4 0c0-1.2.6-2.5 2.2-4.8Z" fill="#fff4d6"/><path d="M14 32h36c-1.3 8.2-8.7 14-18 14s-16.7-5.8-18-14Z" fill="#c9962b"/><path d="M18.5 35.5h27" stroke="#561320" stroke-width="1.2" stroke-linecap="round"/><path d="M24 50h16" stroke="#c9962b" stroke-width="2.2" stroke-linecap="round"/></svg>
